<svg width="1728" height="1117" viewBox="0 0 1728 1117" fill="none" xmlns="http://www.w3.org/2000/svg">
<g clip-path="url(#clip0_7_2)">
<rect width="1728" height="1117" fill="white"/>
<g filter="url(#filter0_f_7_2)">
<path d="M1476 720.075C1476 796.332 1360.89 912 1261.2 912C1161.52 912 1115 796.332 1115 720.075C1115 643.818 1195.81 582 1295.5 582C1395.19 582 1476 643.818 1476 720.075Z" fill="#D7D0FF"/>
</g>
<g filter="url(#filter1_f_7_2)">
<path d="M391 761.268C391 829.899 297.256 934 216.07 934C134.884 934 97 829.899 97 761.268C97 692.637 162.814 637 244 637C325.186 637 391 692.637 391 761.268Z" fill="url(#paint0_linear_7_2)"/>
</g>
<g filter="url(#filter2_f_7_2)">
<ellipse cx="1099" cy="302" rx="404" ry="234" fill="#E2DDFF"/>
</g>
</g>
<defs>
<filter id="filter0_f_7_2" x="915" y="382" width="761" height="730" filterUnits="userSpaceOnUse" color-interpolation-filters="sRGB">
<feFlood flood-opacity="0" result="BackgroundImageFix"/>
<feBlend mode="normal" in="SourceGraphic" in2="BackgroundImageFix" result="shape"/>
<feGaussianBlur stdDeviation="100" result="effect1_foregroundBlur_7_2"/>
</filter>
<filter id="filter1_f_7_2" x="-103" y="437" width="694" height="697" filterUnits="userSpaceOnUse" color-interpolation-filters="sRGB">
<feFlood flood-opacity="0" result="BackgroundImageFix"/>
<feBlend mode="normal" in="SourceGraphic" in2="BackgroundImageFix" result="shape"/>
<feGaussianBlur stdDeviation="100" result="effect1_foregroundBlur_7_2"/>
</filter>
<filter id="filter2_f_7_2" x="495" y="-132" width="1208" height="868" filterUnits="userSpaceOnUse" color-interpolation-filters="sRGB">
<feFlood flood-opacity="0" result="BackgroundImageFix"/>
<feBlend mode="normal" in="SourceGraphic" in2="BackgroundImageFix" result="shape"/>
<feGaussianBlur stdDeviation="100" result="effect1_foregroundBlur_7_2"/>
</filter>
<linearGradient id="paint0_linear_7_2" x1="244" y1="637" x2="244" y2="934" gradientUnits="userSpaceOnUse">
<stop stop-color="#D9D9D9"/>
<stop offset="1" stop-color="#B5A8FF"/>
</linearGradient>
<clipPath id="clip0_7_2">
<rect width="1728" height="1117" fill="white"/>
</clipPath>
</defs>
</svg>
